<?xml version="1.0" encoding="UTF-8"?>
<svg width="16px" height="16px" viewBox="0 0 16 16" version="1.1" xmlns="http://www.w3.org/2000/svg" xmlns:xlink="http://www.w3.org/1999/xlink">
    <title>Shape</title>
    <g id="Page-1" stroke="none" stroke-width="1" fill="none" fill-rule="evenodd">
        <g id="Desktop-HD" transform="translate(-1182.000000, -534.000000)" fill="#A5A2A2" fill-rule="nonzero">
            <path d="M1195.6594,536.340654 C1192.53793,533.219782 1187.46155,533.219782 1184.34009,536.340654 C1181.21997,539.461526 1181.21997,544.539326 1184.34009,547.660198 C1185.90082,549.220306 1187.95044,550 1190.00009,550 C1192.04973,550 1194.09866,549.220274 1195.6594,547.660198 C1198.7802,544.539357 1198.7802,539.461526 1195.6594,536.340654 Z M1193.30095,544.358581 C1193.56172,544.619365 1193.56172,545.040915 1193.30095,545.301699 C1193.17088,545.431763 1193.00015,545.497138 1192.82938,545.497138 C1192.65864,545.497138 1192.48788,545.431763 1192.35782,545.301699 L1190.00005,542.9432 L1187.64295,545.301011 C1187.51223,545.431075 1187.34146,545.496451 1187.17139,545.496451 C1187.00065,545.496451 1186.82988,545.431075 1186.69982,545.301011 C1186.43904,545.040227 1186.43904,544.61802 1186.69982,544.357893 L1189.05693,542.000082 L1186.69916,539.642271 C1186.43839,539.381487 1186.43839,538.95928 1186.69916,538.699153 C1186.95929,538.438369 1187.38148,538.438369 1187.64226,538.699153 L1190.00002,541.056964 L1192.35778,538.699153 C1192.61856,538.438369 1193.0401,538.438369 1193.30088,538.699153 C1193.56166,538.95928 1193.56166,539.381487 1193.30088,539.642271 L1190.94312,542.000082 L1193.30095,544.358581 Z" id="Shape"></path>
        </g>
    </g>
</svg>