<?xml version="1.0" encoding="UTF-8"?>
<svg width="14px" height="13px" viewBox="0 0 14 13" version="1.1" xmlns="http://www.w3.org/2000/svg" xmlns:xlink="http://www.w3.org/1999/xlink">
    <title>swap</title>
    <g id="Page-1" stroke="none" stroke-width="1" fill="none" fill-rule="evenodd">
        <g id="Desktop-HD" transform="translate(-684.000000, -1325.000000)" fill="#000000" fill-rule="nonzero">
            <g id="Group-3" transform="translate(684.000000, 1323.000000)">
                <g id="swap" transform="translate(0.000000, 2.000000)">
                    <path d="M2.53449219,5.40146606 C2.70484375,5.57283655 2.98265625,5.57283655 3.15300781,5.40146606 L3.71875,4.83325204 C3.889375,4.66215618 3.889375,4.38312987 3.71875,4.21203401 L3.15300781,3.64382 L10.9375,3.64382 C11.6612891,3.64382 12.25,4.23510312 12.25,4.96205454 C12.25,5.32539294 12.5444922,5.62117182 12.90625,5.62117182 L13.34375,5.62117182 C13.7055078,5.62117182 14,5.32539294 14,4.96205454 C14,3.26592609 12.62625,1.88617393 10.9375,1.88617393 L3.15300781,1.88617393 L3.71875,1.31795992 C3.889375,1.14686406 3.889375,0.867837744 3.71875,0.696741885 L3.15300781,0.128527868 C2.98265625,-0.0428426228 2.70484375,-0.0428426228 2.53449219,0.128527868 L0.063984375,2.60955514 C-0.021328125,2.69551502 -0.021328125,2.83447891 0.063984375,2.92043879 L2.53449219,5.40146606 Z" id="Path"></path>
                    <path d="M11.4655078,7.59852364 C11.2951562,7.42715315 11.0176172,7.42715315 10.8469922,7.59852364 L10.28125,8.16673766 C10.1102969,8.33843771 10.1100234,8.61598101 10.28125,8.78795569 L10.8469922,9.3561697 L3.0625,9.3561697 C2.33871094,9.3561697 1.75,8.76488658 1.75,8.03793516 C1.75,7.67459676 1.45550781,7.37881788 1.09375,7.37881788 L0.65625,7.37881788 C0.294492188,7.37881788 0,7.67459676 0,8.03793516 C0,9.73406361 1.37375,11.1138158 3.0625,11.1138158 L10.8469922,11.1138158 L10.28125,11.6820298 C10.1102969,11.8537298 10.1100234,12.1312731 10.28125,12.3032478 L10.8469922,12.8714618 C11.0176445,13.0428598 11.2948828,13.0428323 11.4655078,12.8714618 L13.9360156,10.3904346 C14.0213281,10.3044747 14.0213281,10.1655108 13.9360156,10.0795509 L11.4655078,7.59852364 Z" id="Path"></path>
                </g>
            </g>
        </g>
    </g>
</svg>