<?xml version="1.0" encoding="UTF-8"?>
<svg width="381px" height="43px" viewBox="0 0 381 43" version="1.1" xmlns="http://www.w3.org/2000/svg" xmlns:xlink="http://www.w3.org/1999/xlink">
    <title>Group 4</title>
    <defs>
        <linearGradient x1="29.2463401%" y1="50.0001119%" x2="-9.63856368%" y2="50.0001119%" id="linearGradient-1">
            <stop stop-color="#C5CCCC" offset="0%"></stop>
            <stop stop-color="#E6E6E6" offset="100%"></stop>
        </linearGradient>
        <linearGradient x1="50%" y1="103.955537%" x2="50%" y2="-7.85771226%" id="linearGradient-2">
            <stop stop-color="#D4DBDB" offset="0%"></stop>
            <stop stop-color="#F3F3F3" offset="100%"></stop>
        </linearGradient>
        <linearGradient x1="50%" y1="201.823336%" x2="50%" y2="-14.1952032%" id="linearGradient-3">
            <stop stop-color="#202020" offset="0%"></stop>
            <stop stop-color="#A4D2F0" offset="100%"></stop>
        </linearGradient>
    </defs>
    <g id="Page-1" stroke="none" stroke-width="1" fill="none" fill-rule="evenodd">
        <g id="Desktop-HD" transform="translate(-518.000000, -69.000000)" fill-rule="nonzero">
            <g id="Group-4" transform="translate(518.000000, 69.000000)">
                <path d="M87.0263672,33 L87.0263672,31.2773438 L84.1962891,31.0722656 L83.4990234,30.4775391 L83.4990234,6.75 L89.9179688,6.75 L90.5126953,7.38574219 L91.0869141,11.2822266 L93.4042969,11.2822266 L93.4042969,4.82226562 L69.6767578,4.82226562 L69.6767578,11.2822266 L71.9736328,11.2822266 L72.5683594,7.38574219 L73.1630859,6.75 L79.5820312,6.75 L79.5820312,30.4775391 L78.8642578,31.0722656 L76.0546875,31.2773438 L76.0546875,33 L87.0263672,33 Z M104.334961,33 L104.334961,31.4824219 L102.345703,31.2773438 L101.607422,30.6005859 L101.607422,16.5322266 C102.509766,16.0673828 103.350586,15.722168 104.129883,15.496582 C104.90918,15.2709961 105.633789,15.1582031 106.303711,15.1582031 C107.821289,15.1582031 108.908203,15.4863281 109.564453,16.1425781 C110.220703,16.7988281 110.548828,17.9130859 110.548828,19.4853516 L110.548828,19.4853516 L110.548828,30.6005859 L109.831055,31.2773438 L107.862305,31.4824219 L107.862305,33 L117.008789,33 L117.008789,31.4824219 L114.793945,31.2773438 L114.076172,30.6005859 L114.076172,18.7675781 C114.076172,16.6894531 113.59082,15.1035156 112.620117,14.0097656 C111.649414,12.9160156 110.241211,12.3691406 108.395508,12.3691406 C107.616211,12.3691406 106.703613,12.5605469 105.657715,12.9433594 C104.611816,13.3261719 103.261719,13.9755859 101.607422,14.8916016 L101.607422,14.8916016 L101.607422,2.09472656 L100.007812,2.09472656 L94.8808594,3.59179688 L94.8808594,4.90429688 L98.1210938,4.90429688 L98.1210938,30.6005859 L97.4033203,31.2773438 L95.1269531,31.4824219 L95.1269531,33 L104.334961,33 Z M128.677734,33.3691406 C130.03125,33.3691406 131.37793,33.1572266 132.717773,32.7333984 C134.057617,32.3095703 135.349609,31.6875 136.59375,30.8671875 L136.59375,30.8671875 L136.59375,28.5498047 C135.335938,29.3837891 134.17041,29.9990234 133.097168,30.3955078 C132.023926,30.7919922 130.988281,30.9902344 129.990234,30.9902344 C127.830078,30.9902344 126.114258,30.2211914 124.842773,28.6831055 C123.571289,27.1450195 122.935547,25.0566406 122.935547,22.4179688 L122.935547,22.4179688 L122.935547,21.9462891 L136.532227,21.9462891 C136.55957,21.7822266 136.57666,21.6113281 136.583496,21.4335938 C136.590332,21.2558594 136.59375,20.9960938 136.59375,20.6542969 C136.59375,18.0976562 135.913574,16.0776367 134.553223,14.5942383 C133.192871,13.1108398 131.350586,12.3691406 129.026367,12.3691406 C126.182617,12.3691406 123.85498,13.3637695 122.043457,15.3530273 C120.231934,17.3422852 119.326172,19.9091797 119.326172,23.0537109 C119.326172,26.1162109 120.190918,28.6010742 121.92041,30.5083008 C123.649902,32.4155273 125.902344,33.3691406 128.677734,33.3691406 Z M132.84082,20.1826172 L123.140625,20.1826172 C123.263672,18.4736328 123.834473,17.0620117 124.853027,15.9477539 C125.871582,14.8334961 127.078125,14.2763672 128.472656,14.2763672 C129.894531,14.2763672 130.978027,14.7275391 131.723145,15.6298828 C132.468262,16.5322266 132.84082,17.8310547 132.84082,19.5263672 L132.84082,19.5263672 L132.84082,20.1826172 Z M160.157227,33.5126953 C163.438477,33.5126953 166.070312,32.7368164 168.052734,31.1850586 C170.035156,29.6333008 171.026367,27.5927734 171.026367,25.0634766 C171.026367,24.1474609 170.872559,23.2998047 170.564941,22.5205078 C170.257324,21.7412109 169.795898,21.0507812 169.180664,20.4492188 C168.100586,19.3828125 166.336914,18.3710938 163.889648,17.4140625 C163.424805,17.2363281 163.076172,17.0996094 162.84375,17.0039062 C160.355469,15.9511719 158.752441,15.0522461 158.034668,14.3071289 C157.316895,13.5620117 156.958008,12.6220703 156.958008,11.4873047 C156.958008,9.92871094 157.470703,8.69482422 158.496094,7.78564453 C159.521484,6.87646484 160.90918,6.421875 162.65918,6.421875 C163.397461,6.421875 164.081055,6.49365234 164.709961,6.63720703 C165.338867,6.78076172 165.919922,7.00292969 166.453125,7.30371094 L166.453125,7.30371094 L167.068359,8.00097656 L167.704102,12 L169.898438,12 L169.898438,5.49902344 C168.667969,5.10253906 167.461426,4.80517578 166.278809,4.60693359 C165.096191,4.40869141 163.916992,4.30957031 162.741211,4.30957031 C159.81543,4.30957031 157.467285,5.05126953 155.696777,6.53466797 C153.92627,8.01806641 153.041016,9.96289062 153.041016,12.3691406 C153.041016,14.078125 153.505859,15.4692383 154.435547,16.5424805 C155.365234,17.6157227 157.265625,18.7744141 160.136719,20.0185547 C160.369141,20.1142578 160.704102,20.2578125 161.141602,20.4492188 C165.161133,22.1582031 167.170898,24.0859375 167.170898,26.2324219 C167.170898,27.7773438 166.600098,29.0043945 165.458496,29.9135742 C164.316895,30.8227539 162.768555,31.2773438 160.813477,31.2773438 C159.883789,31.2773438 159.022461,31.1953125 158.229492,31.03125 C157.436523,30.8671875 156.732422,30.6279297 156.117188,30.3134766 L156.117188,30.3134766 L155.563477,29.5957031 L155.071289,24.7763672 L152.589844,24.7763672 L152.589844,32.1591797 C153.587891,32.5966797 154.73291,32.9316406 156.024902,33.1640625 C157.316895,33.3964844 158.694336,33.5126953 160.157227,33.5126953 Z M184.089844,33 L189.770508,17.0859375 L194.835938,33 L197.44043,33 L203.449219,14.6865234 L205.807617,14.3583984 L205.807617,12.7998047 L198.383789,12.7998047 L198.383789,14.3583984 L200.639648,14.5224609 L200.967773,15.1992188 L196.702148,28.8369141 L191.739258,12.7998047 L189.175781,12.7998047 L183.556641,28.8369141 L179.72168,15.1992188 L180.234375,14.5224609 L182.449219,14.3583984 L182.449219,12.7998047 L173.34375,12.7998047 L173.34375,14.3583984 L175.907227,14.6044922 L181.485352,33 L184.089844,33 Z M212.267578,8.10351562 C212.951172,8.10351562 213.528809,7.87109375 214.000488,7.40625 C214.472168,6.94140625 214.708008,6.37402344 214.708008,5.70410156 C214.708008,5.03417969 214.472168,4.45996094 214.000488,3.98144531 C213.528809,3.50292969 212.951172,3.26367188 212.267578,3.26367188 C211.597656,3.26367188 211.026855,3.49951172 210.555176,3.97119141 C210.083496,4.44287109 209.847656,5.02050781 209.847656,5.70410156 C209.847656,6.37402344 210.083496,6.94140625 210.555176,7.40625 C211.026855,7.87109375 211.597656,8.10351562 212.267578,8.10351562 Z M216.717773,33 L216.717773,31.4824219 L214.461914,31.2773438 L213.744141,30.6005859 L213.744141,12.5947266 L212.103516,12.5947266 L207.28418,14.0917969 L207.28418,15.4042969 L210.216797,15.4042969 L210.216797,30.6005859 L209.499023,31.2773438 L207.28418,31.4824219 L207.28418,33 L216.717773,33 Z M228.386719,42.1464844 L228.386719,40.6494141 L225.700195,40.4238281 L224.982422,39.7675781 L225.00293,32.7539062 C225.782227,32.8769531 226.493164,32.9692383 227.135742,33.0307617 C227.77832,33.0922852 228.366211,33.1230469 228.899414,33.1230469 C232.016602,33.1230469 234.518555,32.128418 236.405273,30.1391602 C238.291992,28.1499023 239.235352,25.5078125 239.235352,22.2128906 C239.235352,19.3144531 238.47998,16.9492188 236.969238,15.1171875 C235.458496,13.2851562 233.527344,12.3691406 231.175781,12.3691406 C230.205078,12.3691406 229.217285,12.5742188 228.212402,12.984375 C227.20752,13.3945312 226.130859,14.0302734 224.982422,14.8916016 L224.982422,14.8916016 L224.982422,12.5947266 L223.40332,12.5947266 L218.522461,14.0917969 L218.522461,15.4042969 L221.455078,15.4042969 L221.455078,39.7675781 L220.798828,40.4238281 L218.522461,40.6494141 L218.522461,42.1464844 L228.386719,42.1464844 Z M228.571289,31.2363281 C228.051758,31.2363281 227.494629,31.1816406 226.899902,31.0722656 C226.305176,30.9628906 225.666016,30.7919922 224.982422,30.5595703 L224.982422,30.5595703 L224.982422,16.4501953 C225.84375,15.9580078 226.629883,15.5957031 227.34082,15.3632812 C228.051758,15.1308594 228.742188,15.0146484 229.412109,15.0146484 C231.271484,15.0146484 232.758301,15.7119141 233.872559,17.1064453 C234.986816,18.5009766 235.543945,20.3808594 235.543945,22.7460938 C235.543945,25.3027344 234.901367,27.3569336 233.616211,28.9086914 C232.331055,30.4604492 230.649414,31.2363281 228.571289,31.2363281 Z M251.601562,33.3691406 C252.955078,33.3691406 254.301758,33.1572266 255.641602,32.7333984 C256.981445,32.3095703 258.273438,31.6875 259.517578,30.8671875 L259.517578,30.8671875 L259.517578,28.5498047 C258.259766,29.3837891 257.094238,29.9990234 256.020996,30.3955078 C254.947754,30.7919922 253.912109,30.9902344 252.914062,30.9902344 C250.753906,30.9902344 249.038086,30.2211914 247.766602,28.6831055 C246.495117,27.1450195 245.859375,25.0566406 245.859375,22.4179688 L245.859375,22.4179688 L245.859375,21.9462891 L259.456055,21.9462891 C259.483398,21.7822266 259.500488,21.6113281 259.507324,21.4335938 C259.51416,21.2558594 259.517578,20.9960938 259.517578,20.6542969 C259.517578,18.0976562 258.837402,16.0776367 257.477051,14.5942383 C256.116699,13.1108398 254.274414,12.3691406 251.950195,12.3691406 C249.106445,12.3691406 246.778809,13.3637695 244.967285,15.3530273 C243.155762,17.3422852 242.25,19.9091797 242.25,23.0537109 C242.25,26.1162109 243.114746,28.6010742 244.844238,30.5083008 C246.57373,32.4155273 248.826172,33.3691406 251.601562,33.3691406 Z M255.764648,20.1826172 L246.064453,20.1826172 C246.1875,18.4736328 246.758301,17.0620117 247.776855,15.9477539 C248.79541,14.8334961 250.001953,14.2763672 251.396484,14.2763672 C252.818359,14.2763672 253.901855,14.7275391 254.646973,15.6298828 C255.39209,16.5322266 255.764648,17.8310547 255.764648,19.5263672 L255.764648,19.5263672 L255.764648,20.1826172 Z M291.017578,33 L291.017578,31.2773438 L288.1875,31.0722656 L287.490234,30.4775391 L287.490234,6.75 L293.90918,6.75 L294.503906,7.38574219 L295.078125,11.2822266 L297.395508,11.2822266 L297.395508,4.82226562 L273.667969,4.82226562 L273.667969,11.2822266 L275.964844,11.2822266 L276.55957,7.38574219 L277.154297,6.75 L283.573242,6.75 L283.573242,30.4775391 L282.855469,31.0722656 L280.045898,31.2773438 L280.045898,33 L291.017578,33 Z M303.793945,8.10351562 C304.477539,8.10351562 305.055176,7.87109375 305.526855,7.40625 C305.998535,6.94140625 306.234375,6.37402344 306.234375,5.70410156 C306.234375,5.03417969 305.998535,4.45996094 305.526855,3.98144531 C305.055176,3.50292969 304.477539,3.26367188 303.793945,3.26367188 C303.124023,3.26367188 302.553223,3.49951172 302.081543,3.97119141 C301.609863,4.44287109 301.374023,5.02050781 301.374023,5.70410156 C301.374023,6.37402344 301.609863,6.94140625 302.081543,7.40625 C302.553223,7.87109375 303.124023,8.10351562 303.793945,8.10351562 Z M308.244141,33 L308.244141,31.4824219 L305.988281,31.2773438 L305.270508,30.6005859 L305.270508,12.5947266 L303.629883,12.5947266 L298.810547,14.0917969 L298.810547,15.4042969 L301.743164,15.4042969 L301.743164,30.6005859 L301.025391,31.2773438 L298.810547,31.4824219 L298.810547,33 L308.244141,33 Z M319.543945,33 L319.543945,31.4824219 L317.53418,31.2773438 L316.816406,30.6005859 L316.816406,16.5322266 C317.746094,16.0673828 318.604004,15.722168 319.390137,15.496582 C320.17627,15.2709961 320.911133,15.1582031 321.594727,15.1582031 C322.852539,15.1582031 323.785645,15.5102539 324.394043,16.2143555 C325.002441,16.918457 325.306641,18.0087891 325.306641,19.4853516 L325.306641,19.4853516 L325.306641,30.6005859 L324.588867,31.2773438 L322.558594,31.4824219 L322.558594,33 L331.520508,33 L331.520508,31.4824219 L329.53125,31.2773438 L328.792969,30.6005859 L328.792969,16.5322266 C329.736328,16.0673828 330.601074,15.722168 331.387207,15.496582 C332.17334,15.2709961 332.887695,15.1582031 333.530273,15.1582031 C334.81543,15.1582031 335.765625,15.5068359 336.380859,16.2041016 C336.996094,16.9013672 337.303711,17.9951172 337.303711,19.4853516 L337.303711,19.4853516 L337.303711,30.6005859 L336.544922,31.2773438 L334.576172,31.4824219 L334.576172,33 L343.743164,33 L343.743164,31.4824219 L341.507812,31.2773438 L340.749023,30.6005859 L340.749023,18.6445312 C340.749023,16.6621094 340.277344,15.1206055 339.333984,14.0200195 C338.390625,12.9194336 337.071289,12.3691406 335.375977,12.3691406 C334.555664,12.3691406 333.550781,12.6015625 332.361328,13.0664062 C331.171875,13.53125 329.770508,14.2421875 328.157227,15.1992188 C327.678711,14.2695312 327.046387,13.5654297 326.260254,13.0869141 C325.474121,12.6083984 324.568359,12.3691406 323.542969,12.3691406 C322.695312,12.3691406 321.728027,12.5742188 320.641113,12.984375 C319.554199,13.3945312 318.279297,14.0302734 316.816406,14.8916016 L316.816406,14.8916016 L316.816406,12.5947266 L315.216797,12.5947266 L310.335938,14.0917969 L310.335938,15.4042969 L313.330078,15.4042969 L313.330078,30.6005859 L312.612305,31.2773438 L310.335938,31.4824219 L310.335938,33 L319.543945,33 Z M355.391602,33.3691406 C356.745117,33.3691406 358.091797,33.1572266 359.431641,32.7333984 C360.771484,32.3095703 362.063477,31.6875 363.307617,30.8671875 L363.307617,30.8671875 L363.307617,28.5498047 C362.049805,29.3837891 360.884277,29.9990234 359.811035,30.3955078 C358.737793,30.7919922 357.702148,30.9902344 356.704102,30.9902344 C354.543945,30.9902344 352.828125,30.2211914 351.556641,28.6831055 C350.285156,27.1450195 349.649414,25.0566406 349.649414,22.4179688 L349.649414,22.4179688 L349.649414,21.9462891 L363.246094,21.9462891 C363.273438,21.7822266 363.290527,21.6113281 363.297363,21.4335938 C363.304199,21.2558594 363.307617,20.9960938 363.307617,20.6542969 C363.307617,18.0976562 362.627441,16.0776367 361.26709,14.5942383 C359.906738,13.1108398 358.064453,12.3691406 355.740234,12.3691406 C352.896484,12.3691406 350.568848,13.3637695 348.757324,15.3530273 C346.945801,17.3422852 346.040039,19.9091797 346.040039,23.0537109 C346.040039,26.1162109 346.904785,28.6010742 348.634277,30.5083008 C350.36377,32.4155273 352.616211,33.3691406 355.391602,33.3691406 Z M359.554688,20.1826172 L349.854492,20.1826172 C349.977539,18.4736328 350.54834,17.0620117 351.566895,15.9477539 C352.585449,14.8334961 353.791992,14.2763672 355.186523,14.2763672 C356.608398,14.2763672 357.691895,14.7275391 358.437012,15.6298828 C359.182129,16.5322266 359.554688,17.8310547 359.554688,19.5263672 L359.554688,19.5263672 L359.554688,20.1826172 Z M372.331055,33.3691406 C374.791992,33.3691406 376.716309,32.8120117 378.104004,31.6977539 C379.491699,30.5834961 380.185547,29.0419922 380.185547,27.0732422 C380.185547,26.3212891 380.048828,25.6342773 379.775391,25.012207 C379.501953,24.3901367 379.105469,23.8740234 378.585938,23.4638672 C377.875,22.8759766 376.726562,22.2197266 375.140625,21.4951172 C374.689453,21.2900391 374.354492,21.1328125 374.135742,21.0234375 C372.741211,20.3535156 371.797852,19.7451172 371.305664,19.1982422 C370.813477,18.6513672 370.567383,17.9882812 370.567383,17.2089844 C370.567383,16.2519531 370.875,15.5068359 371.490234,14.9736328 C372.105469,14.4404297 372.959961,14.1738281 374.053711,14.1738281 C374.55957,14.1738281 375.06543,14.2490234 375.571289,14.3994141 C376.077148,14.5498047 376.610352,14.7753906 377.170898,15.0761719 L377.170898,15.0761719 L377.499023,18.0498047 L379.570312,18.0498047 L379.570312,13.2919922 C378.859375,12.9912109 378.097168,12.762207 377.283691,12.6049805 C376.470215,12.4477539 375.591797,12.3691406 374.648438,12.3691406 C372.283203,12.3691406 370.451172,12.8818359 369.152344,13.9072266 C367.853516,14.9326172 367.204102,16.3818359 367.204102,18.2548828 C367.204102,19.4853516 367.583496,20.5175781 368.342285,21.3515625 C369.101074,22.1855469 370.533203,23.0742188 372.638672,24.0175781 C374.498047,24.8652344 375.673828,25.565918 376.166016,26.1196289 C376.658203,26.6733398 376.904297,27.3740234 376.904297,28.2216797 C376.904297,29.2333984 376.54541,30.050293 375.827637,30.6723633 C375.109863,31.2944336 374.15625,31.6054688 372.966797,31.6054688 C372.365234,31.6054688 371.76709,31.5234375 371.172363,31.359375 C370.577637,31.1953125 369.986328,30.9423828 369.398438,30.6005859 L369.398438,30.6005859 L368.885742,27.0322266 L366.875977,27.0322266 L366.875977,32.4873047 C367.655273,32.7880859 368.506348,33.0102539 369.429199,33.1538086 C370.352051,33.2973633 371.319336,33.3691406 372.331055,33.3691406 Z" id="TheSwipeTimes" fill="#FFFFFF"></path>
                <g id="news">
                    <path d="M35.0017849,33.4430926 L35.0017849,11.0828645 C35.0017849,9.07407372 32.9399402,7.74281234 31.1360438,8.58710818 L26.5053466,10.7543317 C25.694757,11.1337 24.7515737,11.0870313 23.9815777,10.6294189 L21.2703267,9.01805278 C18.9436614,7.63530768 16.0581235,7.63530768 13.7314582,9.01805278 L11.0201155,10.6294189 C10.2501195,11.0870313 9.30693625,11.1337 8.49634661,10.7543317 L3.8656494,8.58710818 C2.06184462,7.74281234 0,9.07398113 0,11.0828645 L0,33.4430926 C0,36.5121144 2.46200797,39 5.49910757,39 C8.29484462,39 12.7689402,37.5791051 16.7253984,35.6361505 L35.0017849,33.4430926 Z" id="Path" fill="url(#linearGradient-1)"></path>
                    <path d="M5.49910757,39 C8.53620717,39 10.9982151,36.5121144 10.9982151,33.4430926 L10.9982151,3.10187051 C10.9982151,1.09298717 13.0600598,-0.238181616 14.8639562,0.606114225 L19.4946534,2.77333776 C20.305243,3.15270605 21.2484263,3.10603736 22.0184223,2.64842494 L24.7297649,1.03705882 C27.0564303,-0.345686274 29.9419681,-0.345686274 32.2686335,1.03705882 L34.9799761,2.64842494 C35.7499721,3.10603736 36.6931554,3.15270605 37.503745,2.77333776 L42.1344422,0.606114225 C43.9381554,-0.238181616 46,1.09298717 46,3.10187051 L46,33.4430926 C46,36.5121144 43.537992,39 40.5008924,39 L5.49910757,39 Z" id="Path" fill="url(#linearGradient-2)"></path>
                    <path d="M37.0558406,19.555176 L19.9423745,19.555176 C18.1793466,19.555176 16.7502311,18.1109468 16.7502311,16.3294807 L16.7502311,12.4919996 C16.7502311,10.7104409 18.1794382,9.26630427 19.9423745,9.26630427 L37.0558406,9.26630427 C38.8188685,9.26630427 40.2479841,10.7105335 40.2479841,12.4919996 L40.2479841,16.3294807 C40.2479841,18.1109468 38.8188685,19.555176 37.0558406,19.555176 Z" id="Path" fill="url(#linearGradient-3)"></path>
                    <path d="M37.9048247,27.0966139 L19.0933904,27.0966139 C18.5114263,27.0966139 18.0396056,26.619834 18.0396056,26.0317529 C18.0396056,25.4436719 18.5114263,24.966892 19.0933904,24.966892 L37.9048247,24.966892 C38.4868805,24.966892 38.9586096,25.4436719 38.9586096,26.0317529 C38.9586096,26.619834 38.4868805,27.0966139 37.9048247,27.0966139 Z" id="Path" fill="#C2C8CF"></path>
                    <path d="M37.9048247,33.5154105 L19.0933904,33.5154105 C18.5114263,33.5154105 18.0396056,33.0386306 18.0396056,32.4505496 C18.0396056,31.8624685 18.5114263,31.3856886 19.0933904,31.3856886 L37.9048247,31.3856886 C38.4868805,31.3856886 38.9586096,31.8624685 38.9586096,32.4505496 C38.9586096,33.0386306 38.4868805,33.5154105 37.9048247,33.5154105 Z" id="Path" fill="#C2C8CF"></path>
                    <path d="M5.49910757,36.6565651 C5.49910757,38.0722746 7.01380876,38.971758 8.22932669,38.2678386 C9.88367729,37.3098342 10.9982151,35.5079968 10.9982151,33.4430926 L10.9982151,10.6414564 C10.232251,11.0872165 9.29933068,11.1300887 8.49634661,10.7543317 L7.33287649,10.2097711 L7.33287649,33.4430926 C7.33287649,34.1364559 6.95406375,34.7420377 6.39464143,35.0597367 C5.83017928,35.3803987 5.49910757,36.0021849 5.49910757,36.6565651 L5.49910757,36.6565651 Z" id="Path" fill="#AEB4BA"></path>
                </g>
            </g>
        </g>
    </g>
</svg>